<?xml version="1.0" standalone="no"?>
<!DOCTYPE svg PUBLIC "-//W3C//DTD SVG 20010904//EN"
 "http://www.w3.org/TR/2001/REC-SVG-20010904/DTD/svg10.dtd">
<svg version="1.0" xmlns="http://www.w3.org/2000/svg"
 width="900.000000pt" height="900.000000pt" viewBox="0 0 900.000000 900.000000"
 preserveAspectRatio="xMidYMid meet">
<metadata>
Created by potrace 1.11, written by Peter Selinger 2001-2013
</metadata>
<g transform="translate(0.000000,900.000000) scale(0.100000,-0.100000)"
fill="#000000" stroke="none">
<path d="M0 4500 l0 -4500 4500 0 4500 0 0 4500 0 4500 -4500 0 -4500 0 0
-4500z m4932 2825 c1011 -89 1915 -476 2520 -1079 406 -404 654 -887 717
-1396 14 -109 14 -381 0 -490 -40 -329 -174 -686 -361 -965 -563 -841 -1628
-1400 -2876 -1510 -193 -17 -621 -20 -797 -5 -919 78 -1712 374 -2328 870
-542 435 -882 1007 -956 1610 -14 109 -14 381 0 490 51 417 224 811 514 1173
226 281 558 557 915 759 524 297 1140 483 1794 543 199 18 655 18 858 0z"/>
<path d="M4255 7204 c-378 -28 -593 -61 -890 -135 -1088 -272 -1941 -933
-2259 -1749 -96 -247 -130 -434 -130 -715 0 -223 9 -300 60 -500 176 -688 781
-1335 1603 -1710 1184 -542 2677 -524 3836 45 332 163 601 350 854 595 727
704 918 1621 511 2451 -113 230 -251 423 -444 623 -576 594 -1415 970 -2401
1077 -132 14 -630 26 -740 18z m-1435 -768 c140 -3 345 -2 455 3 138 5 202 4
207 -3 4 -6 8 -28 8 -48 0 -42 5 -39 -107 -57 -116 -18 -159 -52 -190 -145
-15 -46 -18 -157 -23 -1201 -7 -1250 -8 -1262 -65 -1461 -34 -117 -110 -261
-189 -360 -148 -184 -334 -290 -555 -316 -160 -18 -251 13 -251 86 0 47 49
137 90 164 30 21 43 23 90 18 30 -4 89 -16 130 -28 41 -11 104 -21 140 -22
136 -2 192 75 234 324 38 226 41 334 41 1545 0 1098 -1 1184 -18 1237 -9 31
-29 71 -43 88 -45 53 -71 61 -276 86 -48 5 -48 5 -48 43 0 50 15 62 70 56 25
-2 160 -7 300 -9z m1540 -116 c0 -52 39 -208 75 -305 51 -137 91 -222 414
-898 369 -772 390 -814 402 -796 22 31 225 442 364 734 81 170 210 440 287
600 191 395 238 512 262 655 l6 35 307 0 c290 0 308 -1 311 -18 2 -10 1 -29
-2 -41 -5 -20 -14 -24 -74 -29 -160 -15 -239 -65 -261 -165 -25 -119 7 -1754
39 -2001 12 -88 33 -127 83 -152 30 -16 154 -38 210 -39 5 0 7 -19 5 -41 l-3
-42 -453 -1 -453 -1 -5 22 c-3 12 -4 30 -2 40 3 18 6 19 148 42 36 6 76 19 90
29 55 41 55 38 57 547 2 259 -1 668 -5 910 l-8 440 -93 -190 c-51 -104 -216
-440 -366 -745 -269 -548 -413 -851 -482 -1019 -19 -47 -41 -92 -48 -100 -25
-25 -51 -3 -75 62 -42 119 -119 295 -370 847 -139 305 -308 685 -376 845 -69
159 -128 293 -133 298 -11 11 -18 -39 -26 -183 -42 -801 -59 -1363 -45 -1528
14 -179 39 -206 199 -223 58 -5 108 -12 113 -15 9 -6 11 -45 3 -66 -4 -10 -81
-13 -406 -12 -430 2 -419 0 -419 52 0 27 22 36 104 46 122 14 174 56 201 162
37 148 132 1627 123 1924 -2 93 -7 122 -23 150 -27 46 -108 86 -208 102 -82
13 -95 25 -83 72 l6 23 305 -1 305 -1 0 -25z m30 -2941 l0 -101 28 8 c73 21
133 -2 158 -62 40 -94 -42 -195 -145 -180 -25 4 -54 8 -63 9 -17 1 -18 18 -18
193 0 173 -2 193 -17 199 -16 6 -15 8 7 20 47 27 50 22 50 -86z m-675 81 c9
-15 318 -13 333 2 9 9 12 2 12 -35 0 -48 -13 -63 -23 -27 -7 25 -50 42 -101
38 l-41 -3 -3 -174 c-3 -181 0 -196 41 -204 12 -2 -18 -4 -68 -4 -50 -1 -77 2
-60 6 l30 6 3 188 2 187 -51 0 c-43 0 -55 -5 -81 -30 -16 -16 -31 -30 -32 -30
-1 0 2 20 8 45 10 45 19 54 31 35z m2265 -17 c-14 -3 -28 -10 -32 -17 -4 -6
-8 -86 -8 -177 0 -174 2 -181 45 -192 11 -2 -18 -5 -65 -5 -49 0 -74 3 -60 7
l25 7 0 184 0 184 -25 7 c-14 4 12 7 60 7 47 -1 74 -3 60 -5z m-1750 -172 c38
-27 55 -91 38 -143 -36 -114 -199 -116 -236 -4 -39 120 96 220 198 147z m558
13 c20 -14 22 -23 22 -108 0 -96 12 -128 42 -110 10 6 9 3 -1 -9 -17 -21 -54
-22 -71 -3 -10 13 -16 13 -46 -1 -51 -25 -89 -9 -89 37 0 36 9 44 88 74 33 13
37 19 37 50 0 32 -20 66 -40 66 -22 0 -42 -15 -51 -36 -4 -13 -15 -24 -24 -24
-35 0 -2 43 50 66 40 17 56 17 83 -2z m304 -7 c3 -5 4 -16 1 -24 -4 -10 -11
-8 -30 7 -59 46 -133 4 -133 -77 0 -55 12 -78 50 -98 37 -19 70 -19 98 1 13 9
22 11 22 4 0 -5 -15 -19 -32 -31 -48 -30 -113 -21 -150 20 -22 25 -28 41 -28
77 0 74 28 112 99 135 31 10 93 1 103 -14z m217 17 c25 -5 31 -12 31 -31 l0
-24 -26 20 c-51 40 -113 20 -134 -44 -32 -96 79 -189 148 -125 25 24 30 10 5
-15 -86 -87 -226 1 -194 122 13 47 36 70 88 89 46 16 43 16 82 8z m245 -8 c49
-20 76 -61 76 -113 0 -58 -21 -96 -64 -117 -65 -31 -124 -16 -163 43 -44 64
-19 150 51 182 50 22 57 23 100 5z m566 -1 c0 -19 5 -19 56 1 36 14 46 14 71
2 26 -12 28 -18 30 -78 4 -109 12 -148 31 -153 9 -3 -10 -5 -43 -6 -45 0 -56
2 -42 10 14 8 17 25 17 99 0 96 -8 110 -61 110 -46 0 -59 -26 -59 -117 0 -77
2 -84 23 -93 16 -6 6 -9 -43 -9 -49 0 -59 3 -42 9 20 9 22 15 22 98 0 69 -4
93 -16 103 -13 11 -12 14 13 25 38 17 43 17 43 -1z m419 9 c25 -5 31 -12 31
-31 l0 -24 -26 20 c-74 58 -160 -16 -133 -114 19 -67 105 -99 149 -55 11 11
20 16 20 10 0 -17 -38 -49 -65 -56 -76 -19 -145 34 -145 112 0 74 29 113 99
135 35 10 34 10 70 3z m161 -218 c0 -23 -30 -41 -48 -30 -23 15 -25 29 -7 48
12 12 21 13 36 6 10 -6 19 -17 19 -24z"/>
<path d="M4397 3264 c-4 -4 -7 -43 -7 -86 0 -71 2 -81 26 -104 48 -49 114 -9
121 73 4 39 0 55 -19 83 -20 30 -30 35 -69 38 -24 2 -48 0 -52 -4z"/>
<path d="M4101 3261 c-44 -44 -35 -150 16 -190 33 -27 46 -26 80 3 25 22 28
31 28 84 0 46 -5 67 -21 89 -27 36 -74 43 -103 14z"/>
<path d="M4720 3142 c-42 -21 -52 -55 -20 -72 34 -18 70 11 70 55 0 40 -3 41
-50 17z"/>
<path d="M5450 3248 c-52 -86 6 -218 83 -189 30 12 37 22 48 70 17 74 -24 151
-81 151 -23 0 -35 -7 -50 -32z"/>
</g>
</svg>
